# Blender 3.4.1
# www.blender.org
mtllib Root1.mtl
o Root1
v -0.401021 2.940828 2.556797
v -0.394926 2.931494 2.558786
v -0.392695 2.922416 2.565177
v -0.394926 2.916026 2.574255
v -0.401021 2.914036 2.583589
v -0.409347 2.916979 2.590677
v -0.417673 2.924067 2.593620
v -0.423768 2.933401 2.591630
v -0.425999 2.942479 2.585240
v -0.423768 2.948869 2.576162
v -0.417673 2.950859 2.566828
v -0.409347 2.947916 2.559740
v -0.649726 2.666480 2.258283
v -0.619096 2.637935 2.272272
v -0.604575 2.609195 2.302467
v -0.610052 2.587958 2.340777
v -0.634061 2.579916 2.376937
v -0.670168 2.587225 2.401259
v -0.708698 2.607924 2.407224
v -0.739328 2.636469 2.393236
v -0.753849 2.665210 2.363041
v -0.748372 2.686446 2.324731
v -0.724363 2.694488 2.288570
v -0.688257 2.687180 2.264249
v -0.769465 2.363996 2.054388
v -0.713986 2.339190 2.085743
v -0.684567 2.311405 2.140869
v -0.689090 2.288086 2.204994
v -0.726344 2.275480 2.260937
v -0.786346 2.276967 2.293708
v -0.853018 2.292146 2.294525
v -0.908497 2.316952 2.263170
v -0.937916 2.344737 2.208045
v -0.933393 2.368057 2.143919
v -0.896139 2.380662 2.087976
v -0.836137 2.379176 2.055205
v -0.782160 2.033248 1.937355
v -0.712167 2.029851 1.983021
v -0.674301 2.019618 2.056896
v -0.678709 2.005291 2.139183
v -0.724208 1.990710 2.207835
v -0.798608 1.979781 2.244457
v -0.881973 1.975433 2.239235
v -0.951965 1.978830 2.193569
v -0.989831 1.989063 2.119694
v -0.985424 2.003390 2.037407
v -0.939925 2.017971 1.968755
v -0.865525 2.028900 1.932133
v -0.716164 1.680378 1.910057
v -0.649515 1.697558 1.957583
v -0.614700 1.706093 2.033154
v -0.621046 1.703695 2.116520
v -0.666853 1.691009 2.185344
v -0.739847 1.671432 2.221183
v -0.820470 1.650211 2.214436
v -0.887119 1.633031 2.166909
v -0.921934 1.624496 2.091338
v -0.915588 1.626894 2.007972
v -0.869781 1.639580 1.939149
v -0.796787 1.659157 1.903309
v -0.591083 1.314687 1.932616
v -0.528142 1.343481 1.979576
v -0.496948 1.363363 2.054593
v -0.505860 1.369004 2.137567
v -0.552490 1.358895 2.206264
v -0.624343 1.335742 2.242279
v -0.702166 1.305750 2.235959
v -0.765107 1.276956 2.188999
v -0.796301 1.257074 2.113982
v -0.787389 1.251433 2.031008
v -0.740759 1.261543 1.962311
v -0.668906 1.284695 1.926296
v -0.434894 0.934749 1.991907
v -0.373779 0.968198 2.038189
v -0.344775 0.993662 2.112393
v -0.355654 1.004318 2.194637
v -0.403501 0.997311 2.262882
v -0.475495 0.974518 2.298844
v -0.552345 0.942046 2.292886
v -0.613460 0.908597 2.246604
v -0.642464 0.883133 2.172400
v -0.631585 0.872477 2.090156
v -0.583738 0.879484 2.021910
v -0.511744 0.902277 1.985949
v -0.257917 0.535931 2.034864
v -0.179900 0.577754 2.093879
v -0.143693 0.611904 2.187907
v -0.158995 0.629229 2.291754
v -0.221708 0.625089 2.377593
v -0.315027 0.600592 2.422425
v -0.413948 0.562302 2.414236
v -0.491964 0.520479 2.355222
v -0.528172 0.486329 2.261194
v -0.512869 0.469004 2.157347
v -0.450156 0.473144 2.071507
v -0.356837 0.497641 2.026676
v -0.107440 0.117548 2.102084
v -0.015066 0.158037 2.171831
v 0.027703 0.194138 2.280939
v 0.009407 0.216178 2.400172
v -0.065051 0.218251 2.497582
v -0.175721 0.199802 2.547068
v -0.292948 0.165773 2.535370
v -0.385322 0.125284 2.465623
v -0.428092 0.089183 2.356515
v -0.409796 0.067143 2.237282
v -0.335338 0.065070 2.139872
v -0.224668 0.083519 2.090386
v -0.008895 -0.320724 2.175867
v 0.096144 -0.292423 2.256333
v 0.145135 -0.262049 2.378752
v 0.124948 -0.237740 2.510323
v 0.040994 -0.226011 2.615789
v -0.084231 -0.230003 2.666893
v -0.217176 -0.248647 2.649941
v -0.322215 -0.276948 2.569475
v -0.371206 -0.307322 2.447056
v -0.351020 -0.331630 2.315485
v -0.267066 -0.343360 2.210018
v -0.141840 -0.339368 2.158914
v 0.009106 -0.778182 2.246262
v 0.120494 -0.773536 2.335796
v 0.172509 -0.757396 2.468005
v 0.151214 -0.734085 2.607462
v 0.062315 -0.709850 2.716801
v -0.070367 -0.691185 2.766724
v -0.211281 -0.683091 2.743854
v -0.322668 -0.687736 2.654319
v -0.374683 -0.703877 2.522110
v -0.353389 -0.727188 2.382653
v -0.264490 -0.751422 2.273314
v -0.131808 -0.770088 2.223392
v -0.044089 -1.272267 2.217933
v 0.098600 -1.306515 2.343960
v 0.163696 -1.311393 2.526044
v 0.133757 -1.285595 2.715396
v 0.016805 -1.236033 2.861278
v -0.155823 -1.175987 2.924603
v -0.337871 -1.121546 2.888401
v -0.480560 -1.087298 2.762374
v -0.545656 -1.082420 2.580290
v -0.515717 -1.108218 2.390938
v -0.398765 -1.157781 2.245056
v -0.226137 -1.217827 2.181731
v -0.234159 -1.786736 2.165421
v -0.080793 -1.876490 2.321813
v -0.015463 -1.914723 2.546101
v -0.055673 -1.891191 2.778189
v -0.190650 -1.812199 2.955887
v -0.384226 -1.698914 3.031583
v -0.584533 -1.581689 2.984994
v -0.737899 -1.491936 2.828602
v -0.803229 -1.453702 2.604314
v -0.763019 -1.477235 2.372226
v -0.628043 -1.556226 2.194527
v -0.434467 -1.669512 2.118832
vn 0.4141 0.4716 -0.7785
vn 0.3750 0.4524 -0.8091
vn -0.0697 0.6785 -0.7313
vn 0.0036 0.7482 -0.6635
vn 0.7406 0.0848 -0.6666
vn 0.7427 0.1284 -0.6572
vn 0.8855 -0.3060 -0.3497
vn 0.9285 -0.2099 -0.3063
vn 0.8045 -0.5879 0.0846
vn 0.8716 -0.4660 0.1521
vn 0.5206 -0.6815 0.5144
vn 0.5828 -0.5625 0.5864
vn 0.1127 -0.5606 0.8204
vn 0.1472 -0.4714 0.8696
vn -0.3046 -0.2600 0.9163
vn -0.3078 -0.2238 0.9248
vn -0.6133 0.1314 0.7788
vn -0.6571 0.1059 0.7463
vn -0.7342 0.5028 0.4562
vn -0.8145 0.4283 0.3914
vn -0.6471 0.7613 0.0411
vn -0.7474 0.6629 -0.0444
vn -0.3804 0.8503 -0.3638
vn -0.4769 0.7538 -0.4520
vn 0.3102 0.3706 -0.8755
vn -0.1856 0.4739 -0.8608
vn 0.7352 0.1943 -0.6493
vn 0.9723 -0.0103 -0.2335
vn 0.9464 -0.1876 0.2628
vn 0.6575 -0.2856 0.6972
vn 0.1900 -0.2753 0.9424
vn -0.3184 -0.1621 0.9340
vn -0.7286 0.0197 0.6847
vn -0.9378 0.2202 0.2685
vn -0.8988 0.3875 -0.2048
vn -0.6251 0.4798 -0.6157
vn 0.2893 0.2192 -0.9318
vn -0.2211 0.1896 -0.9566
vn 0.7260 0.2032 -0.6570
vn 0.9690 0.1452 -0.1999
vn 0.9464 0.0592 0.3174
vn 0.6605 -0.0326 0.7501
vn 0.1912 -0.1042 0.9760
vn -0.3286 -0.1343 0.9349
vn -0.7562 -0.1149 0.6442
vn -0.9808 -0.0529 0.1876
vn -0.9490 0.0338 -0.3135
vn -0.6721 0.1221 -0.7303
vn 0.3091 0.0901 -0.9468
vn -0.1859 -0.0393 -0.9818
vn 0.7252 0.1973 -0.6597
vn 0.9481 0.2530 -0.1925
vn 0.9129 0.2404 0.3300
vn 0.6261 0.1611 0.7629
vn 0.1669 0.0368 0.9853
vn -0.3364 -0.0966 0.9368
vn -0.7455 -0.2019 0.6352
vn -0.9533 -0.2518 0.1670
vn -0.9098 -0.2352 -0.3419
vn -0.6299 -0.1577 -0.7605
vn 0.3375 0.0252 -0.9410
vn -0.1416 -0.1587 -0.9771
vn 0.7284 0.2034 -0.6543
vn 0.9251 0.3280 -0.1911
vn 0.8725 0.3647 0.3251
vn 0.5830 0.3023 0.7542
vn 0.1346 0.1574 0.9783
vn -0.3498 -0.0300 0.9363
vn -0.7383 -0.2084 0.6414
vn -0.9275 -0.3298 0.1759
vn -0.8697 -0.3629 -0.3346
vn -0.5824 -0.3003 -0.7554
vn 0.3438 0.0234 -0.9388
vn -0.1291 -0.1760 -0.9759
vn 0.7204 0.2291 -0.6547
vn 0.9006 0.3867 -0.1984
vn 0.8355 0.4540 0.3094
vn 0.5409 0.4124 0.7330
vn 0.0947 0.2720 0.9576
vn -0.3829 0.0706 0.9211
vn -0.7620 -0.1372 0.6329
vn -0.9400 -0.2948 0.1719
vn -0.8701 -0.3600 -0.3365
vn -0.5730 -0.3162 -0.7561
vn 0.3540 0.0158 -0.9351
vn -0.1248 -0.1688 -0.9777
vn 0.7299 0.2167 -0.6483
vn 0.9039 0.3809 -0.1947
vn 0.8307 0.4653 0.3058
vn 0.5290 0.4474 0.7211
vn 0.0777 0.3312 0.9403
vn -0.4035 0.1471 0.9031
vn -0.7848 -0.0560 0.6173
vn -0.9618 -0.2226 0.1592
vn -0.8862 -0.3073 -0.3467
vn -0.5792 -0.2873 -0.7629
vn 0.3838 -0.0406 -0.9225
vn -0.1096 -0.1828 -0.9770
vn 0.7690 0.1274 -0.6264
vn 0.9459 0.2767 -0.1695
vn 0.8697 0.3688 0.3280
vn 0.5603 0.3796 0.7362
vn 0.0971 0.3056 0.9472
vn -0.3983 0.1653 0.9023
vn -0.7925 -0.0046 0.6099
vn -0.9765 -0.1578 0.1471
vn -0.8984 -0.2517 -0.3600
vn -0.5799 -0.2606 -0.7719
vn 0.4058 -0.0938 -0.9091
vn -0.1018 -0.1642 -0.9811
vn 0.8012 0.0120 -0.5983
vn 0.9831 0.1252 -0.1339
vn 0.9065 0.2165 0.3624
vn 0.5917 0.2626 0.7622
vn 0.1186 0.2510 0.9607
vn -0.3903 0.1835 0.9022
vn -0.7982 0.0771 0.5974
vn -0.9913 -0.0396 0.1256
vn -0.9135 -0.1340 -0.3842
vn -0.5862 -0.1794 -0.7900
vn 0.4322 -0.0584 -0.8999
vn -0.0717 -0.0219 -0.9972
vn 0.8193 -0.0480 -0.5713
vn 0.9947 0.0049 -0.1026
vn 0.9185 0.0856 0.3862
vn 0.6105 0.1738 0.7727
vn 0.1461 0.2477 0.9578
vn -0.3587 0.2882 0.8878
vn -0.7699 0.2833 0.5719
vn -0.9687 0.2320 0.0883
vn -0.8916 0.1472 -0.4282
vn -0.5594 0.0534 -0.8272
vn 0.4564 -0.0403 -0.8889
vn -0.0176 0.1177 -0.9929
vn 0.8216 -0.1405 -0.5525
vn 0.9843 -0.1591 -0.0763
vn 0.9049 -0.0935 0.4153
vn 0.6043 0.0389 0.7958
vn 0.1591 0.2052 0.9657
vn -0.3152 0.3633 0.8767
vn -0.6916 0.4713 0.5473
vn -0.8652 0.4975 0.0629
vn -0.7853 0.4318 -0.4436
vn -0.4736 0.2915 -0.8311
vn 0.4632 -0.0810 -0.8825
vn 0.0070 0.1337 -0.9910
vn 0.8093 -0.2329 -0.5392
vn 0.9567 -0.2848 -0.0599
vn 0.8737 -0.2273 0.4300
vn 0.5829 -0.0758 0.8090
vn 0.1542 0.1335 0.9790
vn -0.3024 0.3480 0.8874
vn -0.6607 0.5087 0.5519
vn -0.8195 0.5696 0.0637
vn -0.7359 0.5123 -0.4426
vn -0.4334 0.3521 -0.8296
vt 0.241304 0.935740
vt 0.241880 0.933993
vt 0.242091 0.932293
vt 0.241880 0.931096
vt 0.241304 0.930723
vt 0.240516 0.931275
vt 0.239728 0.932602
vt 0.239152 0.934350
vt 0.238941 0.936050
vt 0.239152 0.937246
vt 0.239728 0.937619
vt 0.240516 0.937068
vt 0.217775 0.884367
vt 0.220673 0.879022
vt 0.222047 0.873640
vt 0.221528 0.869664
vt 0.219257 0.868158
vt 0.215841 0.869526
vt 0.212196 0.873403
vt 0.209298 0.878748
vt 0.207925 0.884130
vt 0.208443 0.888106
vt 0.210714 0.889612
vt 0.214130 0.888244
vt 0.206447 0.827726
vt 0.211696 0.823081
vt 0.214479 0.817878
vt 0.214051 0.813511
vt 0.210527 0.811151
vt 0.204850 0.811429
vt 0.198543 0.814272
vt 0.193294 0.818917
vt 0.190511 0.824119
vt 0.190939 0.828486
vt 0.194463 0.830847
vt 0.200140 0.830568
vt 0.205246 0.765791
vt 0.211868 0.765155
vt 0.215450 0.763239
vt 0.215033 0.760556
vt 0.210729 0.757826
vt 0.203690 0.755780
vt 0.195803 0.754965
vt 0.189182 0.755601
vt 0.185600 0.757518
vt 0.186016 0.760200
vt 0.190321 0.762931
vt 0.197359 0.764977
vt 0.211490 0.699715
vt 0.217795 0.702932
vt 0.221089 0.704530
vt 0.220488 0.704081
vt 0.216155 0.701706
vt 0.209249 0.698040
vt 0.201622 0.694066
vt 0.195317 0.690849
vt 0.192023 0.689251
vt 0.192623 0.689700
vt 0.196957 0.692075
vt 0.203862 0.695741
vt 0.223323 0.631237
vt 0.229278 0.636629
vt 0.232229 0.640352
vt 0.231385 0.641409
vt 0.226974 0.639515
vt 0.220176 0.635180
vt 0.212814 0.629564
vt 0.206859 0.624172
vt 0.203908 0.620449
vt 0.204751 0.619393
vt 0.209163 0.621286
vt 0.215961 0.625621
vt 0.238099 0.560092
vt 0.243881 0.566355
vt 0.246625 0.571124
vt 0.245596 0.573119
vt 0.241069 0.571807
vt 0.234258 0.567539
vt 0.226988 0.561458
vt 0.221206 0.555195
vt 0.218462 0.550426
vt 0.219491 0.548431
vt 0.224018 0.549743
vt 0.230829 0.554011
vt 0.254842 0.485411
vt 0.262223 0.493243
vt 0.265648 0.499637
vt 0.264201 0.502882
vt 0.258268 0.502106
vt 0.249439 0.497519
vt 0.240081 0.490349
vt 0.232700 0.482518
vt 0.229275 0.476123
vt 0.230722 0.472879
vt 0.236655 0.473654
vt 0.245484 0.478241
vt 0.269078 0.407067
vt 0.277817 0.414649
vt 0.281863 0.421409
vt 0.280132 0.425536
vt 0.273088 0.425924
vt 0.262618 0.422469
vt 0.251528 0.416097
vt 0.242789 0.408515
vt 0.238743 0.401755
vt 0.240474 0.397628
vt 0.247518 0.397240
vt 0.257988 0.400695
vt 0.278401 0.324998
vt 0.288338 0.330298
vt 0.292973 0.335985
vt 0.291063 0.340537
vt 0.283121 0.342734
vt 0.271274 0.341986
vt 0.258696 0.338495
vt 0.248759 0.333195
vt 0.244124 0.327508
vt 0.246034 0.322956
vt 0.253977 0.320759
vt 0.265824 0.321507
vt 0.280104 0.239337
vt 0.290642 0.240207
vt 0.295562 0.243229
vt 0.293548 0.247594
vt 0.285138 0.252132
vt 0.272585 0.255627
vt 0.259254 0.257143
vt 0.248716 0.256273
vt 0.243795 0.253251
vt 0.245810 0.248886
vt 0.254220 0.244348
vt 0.266773 0.240852
vt 0.275071 0.146817
vt 0.288570 0.140404
vt 0.294729 0.139490
vt 0.291896 0.144321
vt 0.280832 0.153602
vt 0.264501 0.164846
vt 0.247278 0.175040
vt 0.233779 0.181453
vt 0.227621 0.182367
vt 0.230453 0.177536
vt 0.241517 0.168255
vt 0.257849 0.157011
vt 0.257090 0.050480
vt 0.271599 0.033673
vt 0.277779 0.026514
vt 0.273975 0.030920
vt 0.261206 0.045712
vt 0.242893 0.066925
vt 0.223943 0.088876
vt 0.209434 0.105683
vt 0.203253 0.112842
vt 0.207057 0.108436
vt 0.219826 0.093644
vt 0.238140 0.072431
s 1
usemtl 
f 1/1/1 13/13/2 24/24/3 12/12/4
f 2/2/5 14/14/6 13/13/2 1/1/1
f 3/3/7 15/15/8 14/14/6 2/2/5
f 4/4/9 16/16/10 15/15/8 3/3/7
f 5/5/11 17/17/12 16/16/10 4/4/9
f 6/6/13 18/18/14 17/17/12 5/5/11
f 7/7/15 19/19/16 18/18/14 6/6/13
f 8/8/17 20/20/18 19/19/16 7/7/15
f 9/9/19 21/21/20 20/20/18 8/8/17
f 10/10/21 22/22/22 21/21/20 9/9/19
f 11/11/23 23/23/24 22/22/22 10/10/21
f 12/12/4 24/24/3 23/23/24 11/11/23
f 13/13/2 25/25/25 36/36/26 24/24/3
f 14/14/6 26/26/27 25/25/25 13/13/2
f 15/15/8 27/27/28 26/26/27 14/14/6
f 16/16/10 28/28/29 27/27/28 15/15/8
f 17/17/12 29/29/30 28/28/29 16/16/10
f 18/18/14 30/30/31 29/29/30 17/17/12
f 19/19/16 31/31/32 30/30/31 18/18/14
f 20/20/18 32/32/33 31/31/32 19/19/16
f 21/21/20 33/33/34 32/32/33 20/20/18
f 22/22/22 34/34/35 33/33/34 21/21/20
f 23/23/24 35/35/36 34/34/35 22/22/22
f 24/24/3 36/36/26 35/35/36 23/23/24
f 25/25/25 37/37/37 48/48/38 36/36/26
f 26/26/27 38/38/39 37/37/37 25/25/25
f 27/27/28 39/39/40 38/38/39 26/26/27
f 28/28/29 40/40/41 39/39/40 27/27/28
f 29/29/30 41/41/42 40/40/41 28/28/29
f 30/30/31 42/42/43 41/41/42 29/29/30
f 31/31/32 43/43/44 42/42/43 30/30/31
f 32/32/33 44/44/45 43/43/44 31/31/32
f 33/33/34 45/45/46 44/44/45 32/32/33
f 34/34/35 46/46/47 45/45/46 33/33/34
f 35/35/36 47/47/48 46/46/47 34/34/35
f 36/36/26 48/48/38 47/47/48 35/35/36
f 37/37/37 49/49/49 60/60/50 48/48/38
f 38/38/39 50/50/51 49/49/49 37/37/37
f 39/39/40 51/51/52 50/50/51 38/38/39
f 40/40/41 52/52/53 51/51/52 39/39/40
f 41/41/42 53/53/54 52/52/53 40/40/41
f 42/42/43 54/54/55 53/53/54 41/41/42
f 43/43/44 55/55/56 54/54/55 42/42/43
f 44/44/45 56/56/57 55/55/56 43/43/44
f 45/45/46 57/57/58 56/56/57 44/44/45
f 46/46/47 58/58/59 57/57/58 45/45/46
f 47/47/48 59/59/60 58/58/59 46/46/47
f 48/48/38 60/60/50 59/59/60 47/47/48
f 49/49/49 61/61/61 72/72/62 60/60/50
f 50/50/51 62/62/63 61/61/61 49/49/49
f 51/51/52 63/63/64 62/62/63 50/50/51
f 52/52/53 64/64/65 63/63/64 51/51/52
f 53/53/54 65/65/66 64/64/65 52/52/53
f 54/54/55 66/66/67 65/65/66 53/53/54
f 55/55/56 67/67/68 66/66/67 54/54/55
f 56/56/57 68/68/69 67/67/68 55/55/56
f 57/57/58 69/69/70 68/68/69 56/56/57
f 58/58/59 70/70/71 69/69/70 57/57/58
f 59/59/60 71/71/72 70/70/71 58/58/59
f 60/60/50 72/72/62 71/71/72 59/59/60
f 61/61/61 73/73/73 84/84/74 72/72/62
f 62/62/63 74/74/75 73/73/73 61/61/61
f 63/63/64 75/75/76 74/74/75 62/62/63
f 64/64/65 76/76/77 75/75/76 63/63/64
f 65/65/66 77/77/78 76/76/77 64/64/65
f 66/66/67 78/78/79 77/77/78 65/65/66
f 67/67/68 79/79/80 78/78/79 66/66/67
f 68/68/69 80/80/81 79/79/80 67/67/68
f 69/69/70 81/81/82 80/80/81 68/68/69
f 70/70/71 82/82/83 81/81/82 69/69/70
f 71/71/72 83/83/84 82/82/83 70/70/71
f 72/72/62 84/84/74 83/83/84 71/71/72
f 73/73/73 85/85/85 96/96/86 84/84/74
f 74/74/75 86/86/87 85/85/85 73/73/73
f 75/75/76 87/87/88 86/86/87 74/74/75
f 76/76/77 88/88/89 87/87/88 75/75/76
f 77/77/78 89/89/90 88/88/89 76/76/77
f 78/78/79 90/90/91 89/89/90 77/77/78
f 79/79/80 91/91/92 90/90/91 78/78/79
f 80/80/81 92/92/93 91/91/92 79/79/80
f 81/81/82 93/93/94 92/92/93 80/80/81
f 82/82/83 94/94/95 93/93/94 81/81/82
f 83/83/84 95/95/96 94/94/95 82/82/83
f 84/84/74 96/96/86 95/95/96 83/83/84
f 85/85/85 97/97/97 108/108/98 96/96/86
f 86/86/87 98/98/99 97/97/97 85/85/85
f 87/87/88 99/99/100 98/98/99 86/86/87
f 88/88/89 100/100/101 99/99/100 87/87/88
f 89/89/90 101/101/102 100/100/101 88/88/89
f 90/90/91 102/102/103 101/101/102 89/89/90
f 91/91/92 103/103/104 102/102/103 90/90/91
f 92/92/93 104/104/105 103/103/104 91/91/92
f 93/93/94 105/105/106 104/104/105 92/92/93
f 94/94/95 106/106/107 105/105/106 93/93/94
f 95/95/96 107/107/108 106/106/107 94/94/95
f 96/96/86 108/108/98 107/107/108 95/95/96
f 97/97/97 109/109/109 120/120/110 108/108/98
f 98/98/99 110/110/111 109/109/109 97/97/97
f 99/99/100 111/111/112 110/110/111 98/98/99
f 100/100/101 112/112/113 111/111/112 99/99/100
f 101/101/102 113/113/114 112/112/113 100/100/101
f 102/102/103 114/114/115 113/113/114 101/101/102
f 103/103/104 115/115/116 114/114/115 102/102/103
f 104/104/105 116/116/117 115/115/116 103/103/104
f 105/105/106 117/117/118 116/116/117 104/104/105
f 106/106/107 118/118/119 117/117/118 105/105/106
f 107/107/108 119/119/120 118/118/119 106/106/107
f 108/108/98 120/120/110 119/119/120 107/107/108
f 109/109/109 121/121/121 132/132/122 120/120/110
f 110/110/111 122/122/123 121/121/121 109/109/109
f 111/111/112 123/123/124 122/122/123 110/110/111
f 112/112/113 124/124/125 123/123/124 111/111/112
f 113/113/114 125/125/126 124/124/125 112/112/113
f 114/114/115 126/126/127 125/125/126 113/113/114
f 115/115/116 127/127/128 126/126/127 114/114/115
f 116/116/117 128/128/129 127/127/128 115/115/116
f 117/117/118 129/129/130 128/128/129 116/116/117
f 118/118/119 130/130/131 129/129/130 117/117/118
f 119/119/120 131/131/132 130/130/131 118/118/119
f 120/120/110 132/132/122 131/131/132 119/119/120
f 121/121/121 133/133/133 144/144/134 132/132/122
f 122/122/123 134/134/135 133/133/133 121/121/121
f 123/123/124 135/135/136 134/134/135 122/122/123
f 124/124/125 136/136/137 135/135/136 123/123/124
f 125/125/126 137/137/138 136/136/137 124/124/125
f 126/126/127 138/138/139 137/137/138 125/125/126
f 127/127/128 139/139/140 138/138/139 126/126/127
f 128/128/129 140/140/141 139/139/140 127/127/128
f 129/129/130 141/141/142 140/140/141 128/128/129
f 130/130/131 142/142/143 141/141/142 129/129/130
f 131/131/132 143/143/144 142/142/143 130/130/131
f 132/132/122 144/144/134 143/143/144 131/131/132
f 133/133/133 145/145/145 156/156/146 144/144/134
f 134/134/135 146/146/147 145/145/145 133/133/133
f 135/135/136 147/147/148 146/146/147 134/134/135
f 136/136/137 148/148/149 147/147/148 135/135/136
f 137/137/138 149/149/150 148/148/149 136/136/137
f 138/138/139 150/150/151 149/149/150 137/137/138
f 139/139/140 151/151/152 150/150/151 138/138/139
f 140/140/141 152/152/153 151/151/152 139/139/140
f 141/141/142 153/153/154 152/152/153 140/140/141
f 142/142/143 154/154/155 153/153/154 141/141/142
f 143/143/144 155/155/156 154/154/155 142/142/143
f 144/144/134 156/156/146 155/155/156 143/143/144
